<svg width="88" height="88" viewBox="0 0 88 88" fill="none" xmlns="http://www.w3.org/2000/svg">
<rect width="88" height="88" rx="44" fill="#E9D5FF"/>
<path d="M29 54V44C29 40.0218 30.5804 36.2064 33.3934 33.3934C36.2064 30.5804 40.0218 29 44 29C47.9782 29 51.7936 30.5804 54.6066 33.3934C57.4196 36.2064 59 40.0218 59 44V54" stroke="#7C3AED" stroke-width="3" stroke-linecap="round" stroke-linejoin="round"/>
<path d="M59 55.6666C59 56.5506 58.6488 57.3985 58.0237 58.0236C57.3986 58.6487 56.5507 58.9999 55.6667 58.9999H54C53.1159 58.9999 52.2681 58.6487 51.643 58.0236C51.0179 57.3985 50.6667 56.5506 50.6667 55.6666V50.6666C50.6667 49.7825 51.0179 48.9347 51.643 48.3096C52.2681 47.6844 53.1159 47.3333 54 47.3333H59V55.6666ZM29 55.6666C29 56.5506 29.3512 57.3985 29.9763 58.0236C30.6014 58.6487 31.4493 58.9999 32.3333 58.9999H34C34.8841 58.9999 35.7319 58.6487 36.357 58.0236C36.9821 57.3985 37.3333 56.5506 37.3333 55.6666V50.6666C37.3333 49.7825 36.9821 48.9347 36.357 48.3096C35.7319 47.6844 34.8841 47.3333 34 47.3333H29V55.6666Z" stroke="#7C3AED" stroke-width="3" stroke-linecap="round" stroke-linejoin="round"/>
</svg>
