<svg width="88" height="88" viewBox="0 0 88 88" fill="none" xmlns="http://www.w3.org/2000/svg">
<rect width="88" height="88" rx="44" fill="#E5E5E5"/>
<path d="M57.3334 35.6667H30.6667C28.8258 35.6667 27.3334 37.1591 27.3334 39.0001V55.6667C27.3334 57.5077 28.8258 59.0001 30.6667 59.0001H57.3334C59.1743 59.0001 60.6667 57.5077 60.6667 55.6667V39.0001C60.6667 37.1591 59.1743 35.6667 57.3334 35.6667Z" stroke="#3F3F46" stroke-width="3" stroke-linecap="round" stroke-linejoin="round"/>
<path d="M50.6667 59V32.3333C50.6667 31.4493 50.3155 30.6014 49.6904 29.9763C49.0653 29.3512 48.2174 29 47.3334 29H40.6667C39.7827 29 38.9348 29.3512 38.3097 29.9763C37.6846 30.6014 37.3334 31.4493 37.3334 32.3333V59" stroke="#3F3F46" stroke-width="3" stroke-linecap="round" stroke-linejoin="round"/>
</svg>
