<svg width="88" height="88" viewBox="0 0 88 88" fill="none" xmlns="http://www.w3.org/2000/svg">
<rect width="88" height="88" rx="44" fill="#B6B8D6"/>
<path d="M55.6667 29H32.3333C30.4924 29 29 30.4924 29 32.3333V55.6667C29 57.5076 30.4924 59 32.3333 59H55.6667C57.5076 59 59 57.5076 59 55.6667V32.3333C59 30.4924 57.5076 29 55.6667 29Z" stroke="#7E78D2" stroke-width="3" stroke-linecap="round" stroke-linejoin="round"/>
<path d="M38.1666 40.6667C39.5473 40.6667 40.6666 39.5475 40.6666 38.1667C40.6666 36.786 39.5473 35.6667 38.1666 35.6667C36.7859 35.6667 35.6666 36.786 35.6666 38.1667C35.6666 39.5475 36.7859 40.6667 38.1666 40.6667Z" stroke="#7E78D2" stroke-width="3" stroke-linecap="round" stroke-linejoin="round"/>
<path d="M59 49.0001L50.6667 40.6667L32.3334 59.0001" stroke="#7E78D2" stroke-width="3" stroke-linecap="round" stroke-linejoin="round"/>
</svg>
