<svg width="88" height="88" viewBox="0 0 88 88" fill="none" xmlns="http://www.w3.org/2000/svg">
<rect width="88" height="88" rx="44" fill="#818CF8"/>
<path d="M50.6667 32.0001C51.0169 31.6499 51.4327 31.3721 51.8902 31.1826C52.3478 30.9931 52.8382 30.8955 53.3334 30.8955C53.8287 30.8955 54.3191 30.9931 54.7766 31.1826C55.2342 31.3721 55.6499 31.6499 56.0001 32.0001C56.3503 32.3503 56.6281 32.766 56.8176 33.2236C57.0071 33.6811 57.1047 34.1715 57.1047 34.6667C57.1047 35.162 57.0071 35.6524 56.8176 36.1099C56.6281 36.5675 56.3503 36.9832 56.0001 37.3334L38.0001 55.3334L30.6667 57.3334L32.6667 50.0001L50.6667 32.0001Z" stroke="#4338CA" stroke-width="2" stroke-linecap="round" stroke-linejoin="round"/>
</svg>
