<svg width="88" height="88" viewBox="0 0 88 88" fill="none" xmlns="http://www.w3.org/2000/svg">
<rect width="88" height="88" rx="44" fill="#BDD9BF"/>
<path d="M47.3333 27.3333H34C33.1159 27.3333 32.2681 27.6844 31.6429 28.3096C31.0178 28.9347 30.6666 29.7825 30.6666 30.6666V57.3333C30.6666 58.2173 31.0178 59.0652 31.6429 59.6903C32.2681 60.3154 33.1159 60.6666 34 60.6666H54C54.884 60.6666 55.7319 60.3154 56.357 59.6903C56.9821 59.0652 57.3333 58.2173 57.3333 57.3333V37.3333L47.3333 27.3333Z" stroke="#506C52" stroke-width="2" stroke-linecap="round" stroke-linejoin="round"/>
<path d="M47.3334 27.3333V37.3333H57.3334" stroke="#506C52" stroke-width="2" stroke-linecap="round" stroke-linejoin="round"/>
<path d="M50.6667 45.6667H37.3334" stroke="#506C52" stroke-width="2" stroke-linecap="round" stroke-linejoin="round"/>
<path d="M50.6667 52.3333H37.3334" stroke="#506C52" stroke-width="2" stroke-linecap="round" stroke-linejoin="round"/>
<path d="M40.6667 39H39H37.3334" stroke="#506C52" stroke-width="2" stroke-linecap="round" stroke-linejoin="round"/>
</svg>
